    <svg
      width="32"
      height="32"
      viewBox="0 0 32 32"
      fill="none"
      xmlns="http://www.w3.org/2000/svg"
    >
      <g clipPath="url(#clip0_1752_34334)">
        <path
          d="M26.928 8.92494L16.372 2.82495C16.1878 2.71828 15.9788 2.66211 15.766 2.66211C15.5532 2.66211 15.3441 2.71828 15.16 2.82495L4.60599 8.92494C4.42178 9.03071 4.26876 9.18322 4.16235 9.36705C4.05595 9.55089 3.99995 9.75953 4 9.97194V22.1779C4.00001 22.3906 4.05602 22.5995 4.1624 22.7837C4.26878 22.9678 4.42176 23.1207 4.60599 23.2269L15.16 29.327C15.3441 29.4336 15.5532 29.4898 15.766 29.4898C15.9788 29.4898 16.1878 29.4336 16.372 29.327L18.872 27.8839L11.445 23.6019L7.16499 21.1319V11.2459L11.445 8.78395L15.725 6.31195L20.099 8.83795L24.286 11.254V21.14L20.099 23.556L18.985 24.2L22.125 26.0049L26.925 23.228C27.108 23.1209 27.2598 22.9676 27.3651 22.7836C27.4704 22.5995 27.5255 22.391 27.525 22.1789V9.97894C27.5254 9.76716 27.4703 9.55898 27.365 9.37523C27.2597 9.19148 27.1079 9.03862 26.925 8.93195L26.928 8.92494Z"
          fill="#633EA5"
        />
        <path
          d="M21.0352 18.7646V13.6076C21.0348 13.4597 20.9957 13.3144 20.9216 13.1863C20.8476 13.0582 20.7412 12.9518 20.6132 12.8776L18.3782 11.5866L16.1432 10.2976C16.0153 10.223 15.8698 10.1836 15.7217 10.1836C15.5736 10.1836 15.4281 10.223 15.3002 10.2976L13.0652 11.5866L10.8302 12.8776C10.702 12.9516 10.5955 13.0579 10.5214 13.1861C10.4473 13.3142 10.4083 13.4596 10.4082 13.6076V18.7686C10.4083 18.9166 10.4473 19.062 10.5214 19.1902C10.5955 19.3183 10.702 19.4247 10.8302 19.4986L13.0652 20.7896L15.3052 22.0766C15.4334 22.1504 15.5788 22.1893 15.7267 22.1893C15.8746 22.1893 16.02 22.1504 16.1482 22.0766L18.3782 20.7896L20.6132 19.4986C20.7418 19.4241 20.8485 19.3171 20.9226 19.1882C20.9967 19.0594 21.0355 18.9133 21.0352 18.7646V18.7646Z"
          fill="#633EA5"
        />
      </g>
      <defs>
        <clipPath id="clip0_1752_34334">
          <rect width="32" height="32" fill="white" />
        </clipPath>
      </defs>
    </svg>






    